<?xml version="1.0" encoding="utf-8"?>
<!-- Generator: Adobe Illustrator 26.0.0, SVG Export Plug-In . SVG Version: 6.00 Build 0)  -->
<svg version="1.1" id="Layer_1" xmlns="http://www.w3.org/2000/svg" xmlns:xlink="http://www.w3.org/1999/xlink" x="0px" y="0px"
	 viewBox="0 0 32 32" style="enable-background:new 0 0 32 32;" xml:space="preserve">
<style type="text/css">
	.st0{fill:#51C2B1;}
</style>
<g id="XMLID_00000039131360637275735520000004542971263074797185_">
	<g>
		<path class="st0" d="M22,19c0.5,0,1,0.5,1,1s-0.5,1-1,1h-5c-0.5,0-1-0.5-1-1s0.5-1,1-1H22z"/>
		<path class="st0" d="M15.6,15.2c0.2,0.2,0.4,0.5,0.4,0.8c0,0.3-0.1,0.6-0.4,0.8l-5,4c-0.4,0.3-1.1,0.3-1.4-0.2
			c-0.4-0.4-0.3-1.1,0.2-1.4l4-3.2l-4-3.2c-0.4-0.3-0.5-1-0.2-1.4c0.3-0.4,1-0.5,1.4-0.2L15.6,15.2z"/>
		<path class="st0" d="M27,25V7H5v18H27z M29,7v18c0,1.1-0.9,2-2,2H5c-1.1,0-2-0.9-2-2V7c0-1.1,0.9-2,2-2h22C28.1,5,29,5.9,29,7z"/>
	</g>
	<g>
	</g>
</g>
</svg>
